<svg class="animated" id="freepik_stories-online-popularity" xmlns="http://www.w3.org/2000/svg" viewBox="0 0 500 500" version="1.1" xmlns:xlink="http://www.w3.org/1999/xlink" xmlns:svgjs="http://svgjs.com/svgjs"><style>svg#freepik_stories-online-popularity:not(.animated) .animable {opacity: 0;}svg#freepik_stories-online-popularity.animated #freepik--Likes--inject-44 {animation: 1.5s Infinite  linear floating;animation-delay: 0s;}svg#freepik_stories-online-popularity.animated #freepik--speech-bubble-2--inject-44 {animation: 1.5s Infinite  linear floating;animation-delay: 0s;}svg#freepik_stories-online-popularity.animated #freepik--text-2--inject-44 {animation: 1.5s Infinite  linear floating;animation-delay: 0s;}svg#freepik_stories-online-popularity.animated #freepik--Icons--inject-44 {animation: 1.5s Infinite  linear floating;animation-delay: 0s;}            @keyframes floating {                0% {                    opacity: 1;                    transform: translateY(0px);                }                50% {                    transform: translateY(-10px);                }                100% {                    opacity: 1;                    transform: translateY(0px);                }            }        </style><g id="freepik--background-complete--inject-44" class="animable" style="transform-origin: 250px 228.23px;"><rect x="416.78" y="398.49" width="33.12" height="0.25" style="fill: rgb(235, 235, 235); transform-origin: 433.34px 398.615px;" id="elmtcruworpjp" class="animable"></rect><rect x="322.53" y="401.21" width="8.69" height="0.25" style="fill: rgb(235, 235, 235); transform-origin: 326.875px 401.335px;" id="el1qp3fp4to9r" class="animable"></rect><rect x="396.59" y="389.21" width="19.19" height="0.25" style="fill: rgb(235, 235, 235); transform-origin: 406.185px 389.335px;" id="el70dj1280fmo" class="animable"></rect><rect x="52.46" y="390.89" width="43.19" height="0.25" style="fill: rgb(235, 235, 235); transform-origin: 74.055px 391.015px;" id="elsmrc2yvicd" class="animable"></rect><rect x="104.56" y="390.89" width="6.33" height="0.25" style="fill: rgb(235, 235, 235); transform-origin: 107.725px 391.015px;" id="el5kyhbhlg7xg" class="animable"></rect><rect x="131.47" y="395.11" width="93.68" height="0.25" style="fill: rgb(235, 235, 235); transform-origin: 178.31px 395.235px;" id="elefimi255jim" class="animable"></rect><path d="M238.4,337.8H45.3a5.71,5.71,0,0,1-5.71-5.71V60.66A5.71,5.71,0,0,1,45.3,55H238.4a5.71,5.71,0,0,1,5.71,5.71V332.09A5.71,5.71,0,0,1,238.4,337.8ZM45.3,55.2a5.47,5.47,0,0,0-5.46,5.46V332.09a5.47,5.47,0,0,0,5.46,5.46H238.4a5.47,5.47,0,0,0,5.46-5.46V60.66a5.47,5.47,0,0,0-5.46-5.46Z" style="fill: rgb(235, 235, 235); transform-origin: 141.85px 196.4px;" id="ellx7ozj72jnj" class="animable"></path><path d="M454.7,337.8H261.6a5.71,5.71,0,0,1-5.71-5.71V60.66A5.71,5.71,0,0,1,261.6,55H454.7a5.71,5.71,0,0,1,5.71,5.71V332.09A5.71,5.71,0,0,1,454.7,337.8ZM261.6,55.2a5.47,5.47,0,0,0-5.46,5.46V332.09a5.47,5.47,0,0,0,5.46,5.46H454.7a5.47,5.47,0,0,0,5.46-5.46V60.66a5.47,5.47,0,0,0-5.46-5.46Z" style="fill: rgb(235, 235, 235); transform-origin: 358.15px 196.4px;" id="elz2952q2498c" class="animable"></path><rect y="382.4" width="500" height="0.25" style="fill: rgb(235, 235, 235); transform-origin: 250px 382.525px;" id="el88xybhhk3si" class="animable"></rect><path d="M124.45,233.57l-2.36.48a2.2,2.2,0,0,0-1.7,2.46l1.68,11a1.92,1.92,0,0,0,2.32,1.62l2.36-.49a2.19,2.19,0,0,0,1.7-2.45l-1.68-11A1.92,1.92,0,0,0,124.45,233.57Z" style="fill: rgb(230, 230, 230); transform-origin: 124.42px 241.35px;" id="el3q0l2cniis4" class="animable"></path><path d="M124.45,233.57l-2.36.48a2.2,2.2,0,0,0-1.7,2.46l1.68,11a1.92,1.92,0,0,0,2.32,1.62l2.36-.49a2.19,2.19,0,0,0,1.7-2.45l-1.68-11A1.92,1.92,0,0,0,124.45,233.57Z" style="fill: rgb(230, 230, 230); transform-origin: 124.42px 241.35px;" id="el4wbq53xd3ru" class="animable"></path><path d="M131.54,248.08a2.87,2.87,0,0,1-2.86-2.48l-1.57-10.27a4.06,4.06,0,0,1,.39-2.39l3.21-6.37-.73-4.78,3.2-.67a2.79,2.79,0,0,1,3.25,1.87l.92,2.79a3,3,0,0,1,.09,1.52l-.64,3.2,6.39-1.32,2.33,2.09-.17,10.07a3.55,3.55,0,0,1-.5,1.77l-.69,1.19a3.6,3.6,0,0,1-2.37,1.72l-9.64,2A3.23,3.23,0,0,1,131.54,248.08Zm-.43-25.51.64,4.16-3.36,6.66a3,3,0,0,0-.29,1.79l1.57,10.27a1.86,1.86,0,0,0,.79,1.29,2,2,0,0,0,1.49.3l9.64-2a2.6,2.6,0,0,0,1.71-1.25l.69-1.18a2.66,2.66,0,0,0,.36-1.28l.16-9.62-1.61-1.45-7.38,1.53.94-4.68a2,2,0,0,0-.06-1l-.92-2.78a1.8,1.8,0,0,0-2.1-1.21Z" style="fill: rgb(230, 230, 230); transform-origin: 136.295px 234.568px;" id="elz60d455kdq" class="animable"></path><path d="M133.34,125.94l-2.35-.51a2.21,2.21,0,0,0-2.56,1.54l-2.94,10.72a1.94,1.94,0,0,0,1.46,2.43l2.35.51a2.21,2.21,0,0,0,2.56-1.55l2.94-10.71A1.94,1.94,0,0,0,133.34,125.94Z" style="fill: rgb(230, 230, 230); transform-origin: 130.145px 133.03px;" id="elnb9d2g2fyj" class="animable"></path><path d="M133.34,125.94l-2.35-.51a2.21,2.21,0,0,0-2.56,1.54l-2.94,10.72a1.94,1.94,0,0,0,1.46,2.43l2.35.51a2.21,2.21,0,0,0,2.56-1.55l2.94-10.71A1.94,1.94,0,0,0,133.34,125.94Z" style="fill: rgb(230, 230, 230); transform-origin: 130.145px 133.03px;" id="elrw7r7kdxqrm" class="animable"></path><path d="M144.84,144.47a3.82,3.82,0,0,1-.75-.08l-9.61-2.11a2.88,2.88,0,0,1-2.18-3.62l2.75-10a4,4,0,0,1,1.33-2l5.53-4.52,1.28-4.65,3.2.7a2.79,2.79,0,0,1,2.21,3l-.3,2.92a2.9,2.9,0,0,1-.55,1.42l-1.88,2.66,6.38,1.4,1.27,2.86-4.27,9.13a3.64,3.64,0,0,1-1.17,1.41l-1.12.8A3.65,3.65,0,0,1,144.84,144.47Zm-.93-25.85-1.12,4.06L137,127.39a3,3,0,0,0-1,1.52l-2.76,10a1.91,1.91,0,0,0,.2,1.5,1.87,1.87,0,0,0,1.23.87l9.62,2.11a2.65,2.65,0,0,0,2.07-.44l1.11-.8a2.65,2.65,0,0,0,.86-1l4.07-8.72-.88-2-7.37-1.62,2.77-3.89a1.94,1.94,0,0,0,.36-.94l.3-2.92a1.79,1.79,0,0,0-1.42-2Z" style="fill: rgb(230, 230, 230); transform-origin: 142.853px 130.98px;" id="elisaixof8wih" class="animable"></path><path d="M84.6,179.41l-2.4,0a2.19,2.19,0,0,0-2.15,2.08l-.48,11.1a1.93,1.93,0,0,0,2,2l2.4,0a2.19,2.19,0,0,0,2.15-2.08l.48-11.1A1.93,1.93,0,0,0,84.6,179.41Z" style="fill: rgb(230, 230, 230); transform-origin: 83.085px 187px;" id="elffcpt88y59h" class="animable"></path><path d="M84.6,179.41l-2.4,0a2.19,2.19,0,0,0-2.15,2.08l-.48,11.1a1.93,1.93,0,0,0,2,2l2.4,0a2.19,2.19,0,0,0,2.15-2.08l.48-11.1A1.93,1.93,0,0,0,84.6,179.41Z" style="fill: rgb(230, 230, 230); transform-origin: 83.085px 187px;" id="elijez2cgbxw" class="animable"></path><path d="M89.33,195.08a2.88,2.88,0,0,1-2.9-3l.44-10.38a4,4,0,0,1,.85-2.27l4.38-5.63.21-4.83,3.27,0a2.79,2.79,0,0,1,2.83,2.46l.36,2.91a3,3,0,0,1-.21,1.51l-1.25,3,6.54-.06,1.87,2.51-2.12,9.85a3.66,3.66,0,0,1-.83,1.64l-.91,1A3.61,3.61,0,0,1,99.2,195l-9.84.09Zm3.94-25.16-.18,4.2L88.51,180a3,3,0,0,0-.64,1.7l-.45,10.38A1.92,1.92,0,0,0,88,193.5a2,2,0,0,0,1.4.58l9.84-.09a2.6,2.6,0,0,0,1.92-.89l.91-1a2.59,2.59,0,0,0,.6-1.19l2-9.41-1.3-1.73-7.54.07,1.83-4.41a2,2,0,0,0,.14-1l-.36-2.92a1.8,1.8,0,0,0-1.81-1.58h0Z" style="fill: rgb(230, 230, 230); transform-origin: 96.0737px 182.03px;" id="el1xjwg15jyir" class="animable"></path><path d="M394,243.43l.55-.21.28-.1a8.58,8.58,0,0,0,1.05-.43l.22-.09h0a8.17,8.17,0,0,0,2.5-2c.09-.11.18-.22.26-.34a7,7,0,0,0,1.41-3.79c0-.15,0-.3,0-.45a5.38,5.38,0,0,0-1.12-3.26c-1.85-2.36-5.4-2.75-8.33-1.05-.79-3.29-3.51-5.6-6.5-5.31a5.41,5.41,0,0,0-3.14,1.44l-.32.31a7.09,7.09,0,0,0-1.77,3.64c0,.14-.05.28-.07.42a8.22,8.22,0,0,0,0,1.79,8.4,8.4,0,0,0,.27,1.43h0l.08.2a7.49,7.49,0,0,0,.43,1.09l.11.26.23.55,2.24,5.36.23.55,1.61,3.83,3.87-1.48.55-.21Z" style="fill: rgb(235, 235, 235); transform-origin: 389.621px 236.823px;" id="elrpl9v68bvun" class="animable"></path><path d="M423.56,189.17l.44-.39.23-.19a8.49,8.49,0,0,0,.83-.76l.18-.17h0a8.62,8.62,0,0,0,.88-1.16,8.25,8.25,0,0,0,.77-1.62c.05-.13.09-.27.13-.4a7.19,7.19,0,0,0,0-4.06,2.86,2.86,0,0,0-.15-.41,5.34,5.34,0,0,0-2.18-2.67c-2.55-1.59-6-.72-8.18,1.88-1.87-2.81-5.23-4-7.93-2.73a5.44,5.44,0,0,0-2.45,2.43c-.07.13-.13.26-.19.4a7.17,7.17,0,0,0-.41,4c0,.14.05.28.09.42a8,8,0,0,0,.6,1.69,7.67,7.67,0,0,0,.74,1.24h0l.14.16a8.3,8.3,0,0,0,.78.88l.19.21.41.43,4,4.26.4.43,2.84,3.05,3.11-2.74.45-.38Z" style="fill: rgb(235, 235, 235); transform-origin: 416.362px 186.036px;" id="elcez0grn6lt6" class="animable"></path><path d="M391.47,130.85l.27-.53.13-.26a8,8,0,0,0,.49-1l.1-.22h0a8.24,8.24,0,0,0,.37-1.4,7.85,7.85,0,0,0,.11-1.8l0-.42a7.14,7.14,0,0,0-1.51-3.76l-.29-.33a5.43,5.43,0,0,0-3-1.66c-3-.51-5.84,1.59-6.87,4.82-2.8-1.91-6.37-1.78-8.38.45a5.38,5.38,0,0,0-1.36,3.16c0,.15,0,.3,0,.45a7.09,7.09,0,0,0,1.13,3.89c.07.12.15.24.23.35a8.34,8.34,0,0,0,1.19,1.34,7.88,7.88,0,0,0,1.16.88h0l.19.09a8,8,0,0,0,1.06.52l.25.12.54.25,5.27,2.46.54.25,3.76,1.76,1.87-3.7.26-.53Z" style="fill: rgb(235, 235, 235); transform-origin: 382.241px 129.827px;" id="eld44p2r641p" class="animable"></path><path d="M128,301.5c-10.75,8.3-13.86,26.45-14.4,39.25,0,1.16-1.87,1.17-1.82,0,.57-13.56,3.65-31.83,15.3-40.82.93-.71,1.84.87.92,1.57Z" style="fill: rgb(245, 245, 245); transform-origin: 120.081px 320.687px;" id="elbf9lmj9n1ot" class="animable"></path><path d="M103.08,292.22c2.74-.31,5,2.49,6.24,4.55,6.19,10.7,3.79,26.84,2.62,38.32-.12,1.15-1.94,1.16-1.82,0,1.14-11.17,3.21-25.73-1.83-36.34-.87-1.82-2.72-5-5.21-4.71-1.17.14-1.16-1.68,0-1.82Z" style="fill: rgb(230, 230, 230); transform-origin: 107.798px 314.076px;" id="elnzbyored4uh" class="animable"></path><path d="M96.41,306.92c11.5-2.84,12.94,22.66,13.28,28.17.07,1.16-1.75,1.16-1.82,0-.46-7.45-.83-18.11-6.21-24.08-1.09-1.21-3-2.78-4.77-2.34-1.13.28-1.62-1.47-.48-1.75Z" style="fill: rgb(230, 230, 230); transform-origin: 102.726px 321.33px;" id="elask0b11e819" class="animable"></path><path d="M130.51,319.29c-9.52-7-12.61,11.47-13.14,16.81-.11,1.15-1.93,1.16-1.82,0,.6-6.06,1.52-17,8.51-19.57a8.15,8.15,0,0,1,7.36,1.19c.93.69,0,2.27-.91,1.57Z" style="fill: rgb(230, 230, 230); transform-origin: 123.675px 326.548px;" id="ela8qvxzo6wz" class="animable"></path><path d="M92.67,322.63a6.79,6.79,0,0,1,5.66-2.06c5.81,1,7.42,9.73,8.3,14.27.22,1.15-1.54,1.64-1.76.49-.76-3.92-4.41-18-10.91-11.41-.83.84-2.11-.45-1.29-1.29Z" style="fill: rgb(245, 245, 245); transform-origin: 99.5277px 328.257px;" id="elsj3rwrek7qg" class="animable"></path><path d="M126.93,382.29H99.42a22.25,22.25,0,0,1-7.9-17c0-7.81,4.38-31.21,4.38-31.21h34.55s4.38,23.4,4.38,31.21A22.25,22.25,0,0,1,126.93,382.29Z" style="fill: rgb(235, 235, 235); transform-origin: 113.175px 358.185px;" id="el46qdnla7inw" class="animable"></path><path d="M131.31,328.27c-8.3,0-16.42-3.36-18.14-7.51s3.62-7.51,11.92-7.51a32,32,0,0,1,7.93,1,22.92,22.92,0,0,1,7.09-1c8.3,0,16.42,3.36,18.14,7.51s-3.62,7.51-11.92,7.51Z" style="fill: rgb(245, 245, 245); transform-origin: 135.71px 320.758px;" id="elsw9y7zwbbgr" class="animable"></path><path d="M77.17,312.19c-6.78,0-9.53-2.75-6.14-6.15s11.64-6.14,18.43-6.14a14.56,14.56,0,0,1,5.32.83,32.56,32.56,0,0,1,7-.83c6.79,0,9.54,2.75,6.14,6.14s-11.64,6.15-18.43,6.15Z" style="fill: rgb(240, 240, 240); transform-origin: 89.4781px 306.041px;" id="elnheng4byk0j" class="animable"></path><path d="M139.59,306c-8.54,0-18.92-3.46-23.19-7.73s-.81-7.73,7.73-7.73a40.6,40.6,0,0,1,8.77,1.05,18.14,18.14,0,0,1,6.69-1.05c8.54,0,18.92,3.47,23.19,7.73s.81,7.73-7.73,7.73Z" style="fill: rgb(235, 235, 235); transform-origin: 139.59px 298.265px;" id="elw8n89cixcp" class="animable"></path><path d="M92.12,296.06c-4.27,0-7-1.73-6.13-3.86s5.06-3.87,9.33-3.87a11.79,11.79,0,0,1,3.65.52,16.46,16.46,0,0,1,4.08-.52c4.27,0,7,1.73,6.13,3.87s-5.06,3.86-9.33,3.86Z" style="fill: rgb(240, 240, 240); transform-origin: 97.585px 292.194px;" id="el2oozeiqg6jt" class="animable"></path><path d="M87.2,327c-4.27,0-8.45-1.73-9.33-3.87s1.86-3.86,6.13-3.86a16.52,16.52,0,0,1,4.08.52,11.79,11.79,0,0,1,3.65-.52c4.26,0,8.44,1.73,9.33,3.86S99.2,327,94.93,327Z" style="fill: rgb(235, 235, 235); transform-origin: 89.4664px 323.134px;" id="elkk8dp48mrpb" class="animable"></path><path d="M95.12,338.39c.47-2.63.78-4.33.78-4.33h34.55s.31,1.7.78,4.33Z" style="fill: rgb(245, 245, 245); transform-origin: 113.175px 336.225px;" id="elf4rtoyogtnl" class="animable"></path><path d="M93.62,302.22s-9.48,3.16-12.48,8.37C81.14,310.59,81.62,303,93.62,302.22Z" style="fill: rgb(250, 250, 250); transform-origin: 87.38px 306.405px;" id="el5docmr9zf8h" class="animable"></path><path d="M98.08,289.83a14.08,14.08,0,0,0-4,3.42A4.83,4.83,0,0,1,98.08,289.83Z" style="fill: rgb(250, 250, 250); transform-origin: 96.08px 291.54px;" id="el93on102fhem" class="animable"></path><path d="M134.83,293.25s10.27,3.76,16.59,10.87C151.42,304.12,146.52,294.24,134.83,293.25Z" style="fill: rgb(250, 250, 250); transform-origin: 143.125px 298.685px;" id="el1rqu27vi733" class="animable"></path><path d="M134.83,316.12a25.75,25.75,0,0,1,10.74,8.37S143.67,317.38,134.83,316.12Z" style="fill: rgb(230, 230, 230); transform-origin: 140.2px 320.305px;" id="elkz5tlzqkw7e" class="animable"></path><path d="M88.24,321.33a5,5,0,0,1,2.69,4.11A9.1,9.1,0,0,1,88.24,321.33Z" style="fill: rgb(250, 250, 250); transform-origin: 89.585px 323.385px;" id="el4n24xufti9w" class="animable"></path><circle cx="410.38" cy="85.94" r="19.55" style="fill: rgb(235, 235, 235); transform-origin: 410.38px 85.94px;" id="elerpbz8nb59i" class="animable"></circle><path d="M410.44,105.93a20,20,0,0,1,0-40v.88a19.11,19.11,0,0,0,0,38.22Z" style="fill: rgb(255, 255, 255); transform-origin: 400.44px 85.93px;" id="elhzgqnrpmmjc" class="animable"></path><path d="M410.44,105.93v-.88a19.11,19.11,0,1,0,0-38.22V66a20,20,0,0,1,0,40Z" style="fill: rgb(255, 255, 255); transform-origin: 420.44px 86px;" id="elxzpnwzyp2s" class="animable"></path><path d="M420.65,85.94h-.88c0-6.47-3.29-15.14-9.57-19.17l.47-.75C417.22,70.23,420.65,79.23,420.65,85.94Z" style="fill: rgb(255, 255, 255); transform-origin: 415.425px 75.98px;" id="el6lv80tnepf8" class="animable"></path><path d="M410.67,105.27l-.47-.74c6.28-4,9.57-12.7,9.57-19.18h.88C420.65,92.06,417.22,101.06,410.67,105.27Z" style="fill: rgb(255, 255, 255); transform-origin: 415.425px 95.31px;" id="elzdd9ci69b3f" class="animable"></path><path d="M401.1,85.94h-.88c0-6.72,3.43-15.72,10-19.92l.47.74C404.39,70.79,401.1,79.46,401.1,85.94Z" style="fill: rgb(255, 255, 255); transform-origin: 405.455px 75.98px;" id="el5ju4hv2pfbx" class="animable"></path><path d="M410.2,105.26c-6.55-4.2-10-13.2-10-19.92h.88c0,6.48,3.29,15.15,9.57,19.18Z" style="fill: rgb(255, 255, 255); transform-origin: 405.425px 95.3px;" id="elxiz9wzhifrb" class="animable"></path><rect x="410" y="66.39" width="0.88" height="39.1" style="fill: rgb(255, 255, 255); transform-origin: 410.44px 85.94px;" id="elv0g05lnpkgi" class="animable"></rect><rect x="393.89" y="75.09" width="33.09" height="0.88" style="fill: rgb(255, 255, 255); transform-origin: 410.435px 75.53px;" id="elrbexo8rzn79" class="animable"></rect><rect x="390.9" y="85.83" width="39.08" height="0.88" style="fill: rgb(255, 255, 255); transform-origin: 410.44px 86.27px;" id="elzg4sxr9x39" class="animable"></rect><rect x="394.33" y="96.57" width="32.22" height="0.88" style="fill: rgb(255, 255, 255); transform-origin: 410.44px 97.01px;" id="el3gvajzrvnpo" class="animable"></rect></g><g id="freepik--Shadow--inject-44" class="animable" style="transform-origin: 250px 415.69px;"><ellipse id="freepik--path--inject-44" cx="250" cy="415.69" rx="193.89" ry="11.32" style="fill: rgb(245, 245, 245); transform-origin: 250px 415.69px;" class="animable"></ellipse></g><g id="freepik--Plant--inject-44" class="animable" style="transform-origin: 348.468px 385.967px;"><path d="M366,404.14c-1.6,10.4-4.78,17.53-17.52,17.53s-15.93-7.13-17.53-17.53c-2-12.73,5-33.94,17.53-33.94S368,391.41,366,404.14Z" style="fill: rgb(38, 50, 56); transform-origin: 348.475px 395.935px;" id="el98fz2kjd8ai" class="animable"></path><path d="M348.12,373a16.64,16.64,0,0,1-11.51-7.27,21.7,21.7,0,0,1-3.68-14.48c5-1.74,10.24-1.53,13.79,3.55A19.28,19.28,0,0,1,348.12,373Z" style="fill: rgb(64, 123, 255); transform-origin: 341.292px 361.632px;" id="el5u21qfa2jwx" class="animable"></path><g id="el1fuh29cs1pi"><path d="M348.12,373a16.64,16.64,0,0,1-11.51-7.27,21.7,21.7,0,0,1-3.68-14.48c5-1.74,10.24-1.53,13.79,3.55A19.28,19.28,0,0,1,348.12,373Z" style="opacity: 0.3; transform-origin: 341.292px 361.632px;" class="animable"></path></g><path d="M339,367.06c-.93-6.32-7.64-10.62-14-10.54a22.61,22.61,0,0,0-11.55,3.7,6,6,0,0,0-.73,9.63,16.33,16.33,0,0,0,9.07,3.92C327.82,374.36,334.76,371.39,339,367.06Z" style="fill: rgb(64, 123, 255); transform-origin: 324.818px 365.182px;" id="elcuex0nctkgq" class="animable"></path><g id="els3fjr8bz1dn"><path d="M339,367.06c-.93-6.32-7.64-10.62-14-10.54a22.61,22.61,0,0,0-11.55,3.7,6,6,0,0,0-.73,9.63,16.33,16.33,0,0,0,9.07,3.92C327.82,374.36,334.76,371.39,339,367.06Z" style="opacity: 0.2; transform-origin: 324.818px 365.182px;" class="animable"></path></g><path d="M343.47,371.92a6.57,6.57,0,0,0-8.8-5.95,19.23,19.23,0,0,0-12.83,18.24,7.44,7.44,0,0,0,8.57,7.41,13.63,13.63,0,0,0,5.3-2,18,18,0,0,0,7.15-10.42A25.5,25.5,0,0,0,343.47,371.92Z" style="fill: rgb(64, 123, 255); transform-origin: 332.678px 378.642px;" id="elins4dp3mzkb" class="animable"></path><path d="M343.47,371.92a6.57,6.57,0,0,0-8.8-5.95,19.23,19.23,0,0,0-12.83,18.24,7.44,7.44,0,0,0,8.57,7.41,13.63,13.63,0,0,0,5.3-2,18,18,0,0,0,7.15-10.42A25.5,25.5,0,0,0,343.47,371.92Z" style="fill: rgb(64, 123, 255); transform-origin: 332.678px 378.642px;" id="el5edz0s2b5wr" class="animable"></path><path d="M367.56,354.09a16.46,16.46,0,0,0-12.34.19,16.29,16.29,0,0,0-4,2.45,7.41,7.41,0,0,0,2.17,12.72,11.62,11.62,0,0,0,9-.33C368.14,366.32,370.83,359.57,367.56,354.09Z" style="fill: rgb(64, 123, 255); transform-origin: 358.73px 361.591px;" id="el95b2jauunbg" class="animable"></path><g id="el59jr4bziye5"><path d="M367.56,354.09a16.46,16.46,0,0,0-12.34.19,16.29,16.29,0,0,0-4,2.45,7.41,7.41,0,0,0,2.17,12.72,11.62,11.62,0,0,0,9-.33C368.14,366.32,370.83,359.57,367.56,354.09Z" style="opacity: 0.3; transform-origin: 358.73px 361.591px;" class="animable"></path></g><path d="M362.31,360.2c-1.67,1.45-3.38,3-4.19,5.29a6.19,6.19,0,0,0-.3,2.83c.41,2.87,2.66,3.79,4.7,4.34a36.84,36.84,0,0,0,21-.63,4,4,0,0,0,1.86-6.36,22.09,22.09,0,0,0-8.18-6.42C372.9,357.43,366,357,362.31,360.2Z" style="fill: rgb(64, 123, 255); transform-origin: 372.035px 365.864px;" id="el4jrftuj503t" class="animable"></path><g id="eldjkhz1dyhnu"><path d="M362.31,360.2c-1.67,1.45-3.38,3-4.19,5.29a6.19,6.19,0,0,0-.3,2.83c.41,2.87,2.66,3.79,4.7,4.34a36.84,36.84,0,0,0,21-.63,4,4,0,0,0,1.86-6.36,22.09,22.09,0,0,0-8.18-6.42C372.9,357.43,366,357,362.31,360.2Z" style="opacity: 0.2; transform-origin: 372.035px 365.864px;" class="animable"></path></g><path d="M365,367.44a5.71,5.71,0,0,0-6.85,4.09,10.83,10.83,0,0,0,.21,6.05,14.54,14.54,0,0,0,8.16,8.33,21.79,21.79,0,0,0,6.25,1.6,5,5,0,0,0,5.58-5.5A18.89,18.89,0,0,0,375,373C372.7,369.89,368.84,368.38,365,367.44Z" style="fill: rgb(64, 123, 255); transform-origin: 368.098px 377.415px;" id="el9ibmsaxibg5" class="animable"></path><path d="M365,367.44a5.71,5.71,0,0,0-6.85,4.09,10.83,10.83,0,0,0,.21,6.05,14.54,14.54,0,0,0,8.16,8.33,21.79,21.79,0,0,0,6.25,1.6,5,5,0,0,0,5.58-5.5A18.89,18.89,0,0,0,375,373C372.7,369.89,368.84,368.38,365,367.44Z" style="fill: rgb(64, 123, 255); transform-origin: 368.098px 377.415px;" id="el0s434h3h300h" class="animable"></path><path d="M353,367.37c-2.63-3-7.85-2.8-10.79-.05s-3.71,7.25-2.75,11.15,3.4,7.27,6.12,10.22c1.17,1.25,2.39,2.45,3.68,3.59a7.57,7.57,0,0,0,12.32-3.73l0-.1c1.13-4.06,2.26-8.28,1.57-12.43S357.14,367.8,353,367.37Z" style="fill: rgb(64, 123, 255); transform-origin: 351.215px 379.68px;" id="eld177nx16rda" class="animable"></path><g id="eldjku5huy4s6"><path d="M353,367.37c-2.63-3-7.85-2.8-10.79-.05s-3.71,7.25-2.75,11.15,3.4,7.27,6.12,10.22c1.17,1.25,2.39,2.45,3.68,3.59a7.57,7.57,0,0,0,12.32-3.73l0-.1c1.13-4.06,2.26-8.28,1.57-12.43S357.14,367.8,353,367.37Z" style="fill: rgb(255, 255, 255); opacity: 0.1; transform-origin: 351.215px 379.68px;" class="animable"></path></g><g id="eld0ld8cg0mis"><path d="M353.89,370.25a41.47,41.47,0,0,1,2.69,20.59A75,75,0,0,0,352,369.08,2.18,2.18,0,0,1,353.89,370.25Z" style="fill: rgb(255, 255, 255); opacity: 0.2; transform-origin: 354.447px 379.96px;" class="animable"></path></g><g id="elekpt9jo8wxm"><path d="M337.16,369.62A39.59,39.59,0,0,0,327.92,386a29.62,29.62,0,0,1,7.61-16.43C336,369.15,336.61,369.35,337.16,369.62Z" style="fill: rgb(255, 255, 255); opacity: 0.2; transform-origin: 332.54px 377.664px;" class="animable"></path></g><g id="elqjunp9b1nxl"><path d="M332.59,363.89a22,22,0,0,0-7.16-2.61c-3.68-.44-7.31,1.23-10.75,2.64a34.62,34.62,0,0,1,8.95-3.45,11.65,11.65,0,0,1,9.18,1.77C332.75,362.81,332.64,363.31,332.59,363.89Z" style="fill: rgb(255, 255, 255); opacity: 0.2; transform-origin: 323.745px 362.052px;" class="animable"></path></g><g id="elg1s0vy4qyud"><path d="M374.56,381.08a40.23,40.23,0,0,0-4.69-7.24,13.32,13.32,0,0,0-7.21-4.49c.83,0,1.84-.25,2.67-.25a20.94,20.94,0,0,1,9.32,12.19C374.73,381.11,374.48,381.27,374.56,381.08Z" style="fill: rgb(255, 255, 255); opacity: 0.2; transform-origin: 368.663px 375.195px;" class="animable"></path></g><g id="elywad706kjap"><path d="M345,364.13a22.17,22.17,0,0,0-9.51-11.69,20.51,20.51,0,0,1,7.15,9.92c.22.66.22,1.45.46,2.1A1.75,1.75,0,0,0,345,364.13Z" style="fill: rgb(255, 255, 255); opacity: 0.2; transform-origin: 340.245px 358.523px;" class="animable"></path></g><g id="elbb1fyanhd59"><path d="M365,355.32A16.84,16.84,0,0,0,354.46,365c.35.18.35.35.71.53.44-2.43,2.38-4.33,4.31-5.87S363.16,357,365,355.32Z" style="fill: rgb(255, 255, 255); opacity: 0.2; transform-origin: 359.73px 360.425px;" class="animable"></path></g><g id="el29ls8879lpy"><path d="M383.36,367.09c-2.3-3.51-6.59-5.37-10.79-5.49a25.07,25.07,0,0,0-12.05,3.22v1.43a18.06,18.06,0,0,1,11.37-3.32A19.18,19.18,0,0,1,383.36,367.09Z" style="fill: rgb(255, 255, 255); opacity: 0.2; transform-origin: 371.94px 364.345px;" class="animable"></path></g></g><g id="freepik--Likes--inject-44" class="animable" style="transform-origin: 323.71px 164.455px;"><path d="M304.48,235.73v-13a1.55,1.55,0,0,1,1.56-1.55h2.59l.06-6.65,7.15,6.65h15.42a1.55,1.55,0,0,1,1.55,1.55v13a1.56,1.56,0,0,1-1.55,1.55H306A1.56,1.56,0,0,1,304.48,235.73Z" style="fill: rgb(64, 123, 255); transform-origin: 318.645px 225.905px;" id="elnzt48jmfs57" class="animable"></path><path d="M322.92,231l.25-.23.12-.13a5,5,0,0,0,.46-.46l.09-.1h0a4.92,4.92,0,0,0,.47-.69,4.61,4.61,0,0,0,.39-1,2.17,2.17,0,0,0,.07-.24,4.16,4.16,0,0,0-.12-2.33,2.44,2.44,0,0,0-.1-.24,3.16,3.16,0,0,0-1.33-1.47,3.71,3.71,0,0,0-4.66,1.33,3.7,3.7,0,0,0-4.65-1.33,3.13,3.13,0,0,0-1.34,1.47l-.1.24a4.16,4.16,0,0,0-.11,2.33l.06.24a4.65,4.65,0,0,0,.4,1,4.19,4.19,0,0,0,.47.69h0l.09.09a3.63,3.63,0,0,0,.48.48l.11.12.25.23,2.41,2.34.24.23,1.73,1.67,1.71-1.67.24-.23Z" style="fill: rgb(255, 255, 255); transform-origin: 318.563px 229.503px;" id="elduqnsioq1jd" class="animable"></path><path d="M310.73,93.4v14.74a1.77,1.77,0,0,0,1.77,1.77h2.94l.08,7.56,8.12-7.56h17.53a1.78,1.78,0,0,0,1.77-1.77V93.4a1.78,1.78,0,0,0-1.77-1.77H312.5A1.77,1.77,0,0,0,310.73,93.4Z" style="fill: rgb(64, 123, 255); transform-origin: 326.835px 104.55px;" id="eli5qcu39tdn" class="animable"></path><path d="M331.69,102.15l.28-.27.14-.14a4.34,4.34,0,0,0,.52-.53l.11-.11h0a6.4,6.4,0,0,0,.53-.79,6,6,0,0,0,.45-1.09,2.68,2.68,0,0,0,.07-.27,4.74,4.74,0,0,0-.13-2.65l-.11-.27A3.57,3.57,0,0,0,332,94.36a4.19,4.19,0,0,0-5.29,1.51,4.2,4.2,0,0,0-5.29-1.51A3.52,3.52,0,0,0,319.92,96c0,.09-.08.18-.11.27a4.65,4.65,0,0,0-.14,2.65,2.68,2.68,0,0,1,.07.27,5.39,5.39,0,0,0,.46,1.09,4.74,4.74,0,0,0,.53.79h0l.1.1a5.62,5.62,0,0,0,.54.55l.14.13.27.27,2.75,2.65.28.27,1.95,1.89,1.95-1.89.28-.27Z" style="fill: rgb(255, 255, 255); transform-origin: 326.73px 100.447px;" id="el2uh7zlrcr0x" class="animable"></path></g><g id="freepik--Sparkles--inject-44" class="animable" style="transform-origin: 258.4px 232.845px;"><path d="M192.26,204.61a31.73,31.73,0,0,0,.67-4.38c.62-4.95,3.55-8.77,7.25-9.53l2.66-.54s-4.18,0-5.93-1.22c-3.7-2.59-4.55-10.25-4.55-10.25s-1,7.66-4.74,10.25c-1.75,1.22-5.93,1.22-5.93,1.22l2.66.54c3.7.76,6.63,4.58,7.25,9.53A34.69,34.69,0,0,0,192.26,204.61Z" style="fill: rgb(64, 123, 255); transform-origin: 192.265px 191.65px;" id="elop2ru1yu8nn" class="animable"></path><g id="elr3xamt0rr8s"><g style="opacity: 0.7; transform-origin: 192.265px 191.65px;" class="animable"><path d="M192.26,204.61a31.73,31.73,0,0,0,.67-4.38c.62-4.95,3.55-8.77,7.25-9.53l2.66-.54s-4.18,0-5.93-1.22c-3.7-2.59-4.55-10.25-4.55-10.25s-1,7.66-4.74,10.25c-1.75,1.22-5.93,1.22-5.93,1.22l2.66.54c3.7.76,6.63,4.58,7.25,9.53A34.69,34.69,0,0,0,192.26,204.61Z" style="fill: rgb(255, 255, 255); transform-origin: 192.265px 191.65px;" id="el2k4yktmdrhr" class="animable"></path></g></g><path d="M324.53,205a35.36,35.36,0,0,0,.67-4.38c.61-5,3.54-8.77,7.24-9.53l2.67-.54s-4.19,0-5.94-1.22c-3.7-2.59-4.55-10.25-4.55-10.25s-1,7.66-4.74,10.25c-1.74,1.22-5.93,1.22-5.93,1.22l2.67.54c3.69.76,6.63,4.58,7.24,9.53A31.41,31.41,0,0,0,324.53,205Z" style="fill: rgb(64, 123, 255); transform-origin: 324.53px 192.04px;" id="elzpt9jnmi47a" class="animable"></path><g id="elhq2bzornknr"><g style="opacity: 0.7; transform-origin: 324.53px 192.04px;" class="animable"><path d="M324.53,205a35.36,35.36,0,0,0,.67-4.38c.61-5,3.54-8.77,7.24-9.53l2.67-.54s-4.19,0-5.94-1.22c-3.7-2.59-4.55-10.25-4.55-10.25s-1,7.66-4.74,10.25c-1.74,1.22-5.93,1.22-5.93,1.22l2.67.54c3.69.76,6.63,4.58,7.24,9.53A31.41,31.41,0,0,0,324.53,205Z" style="fill: rgb(255, 255, 255); transform-origin: 324.53px 192.04px;" id="elyt9omoc2nm" class="animable"></path></g></g><path d="M302.41,287a35,35,0,0,0,.67-4.37c.61-4.95,3.54-8.77,7.24-9.53l2.67-.54s-4.19,0-5.94-1.23c-3.7-2.59-4.55-10.24-4.55-10.24s-1,7.65-4.74,10.24c-1.74,1.23-5.93,1.23-5.93,1.23l2.67.54c3.69.76,6.63,4.58,7.24,9.53A32.94,32.94,0,0,0,302.41,287Z" style="fill: rgb(64, 123, 255); transform-origin: 302.41px 274.045px;" id="elc5lk84ldj0t" class="animable"></path><g id="elz3qj3xl6c4"><g style="opacity: 0.7; transform-origin: 302.41px 274.045px;" class="animable"><path d="M302.41,287a35,35,0,0,0,.67-4.37c.61-4.95,3.54-8.77,7.24-9.53l2.67-.54s-4.19,0-5.94-1.23c-3.7-2.59-4.55-10.24-4.55-10.24s-1,7.65-4.74,10.24c-1.74,1.23-5.93,1.23-5.93,1.23l2.67.54c3.69.76,6.63,4.58,7.24,9.53A32.94,32.94,0,0,0,302.41,287Z" style="fill: rgb(255, 255, 255); transform-origin: 302.41px 274.045px;" id="el9y3jmi3h2kh" class="animable"></path></g></g></g><g id="freepik--speech-bubble-2--inject-44" class="animable" style="transform-origin: 354.22px 162.68px;"><path d="M382.69,148.75H339a2.68,2.68,0,0,0-2.69,2.69v5.22H323.75l12.39,11.53.13-.06v5.8a2.69,2.69,0,0,0,2.69,2.69h43.73a2.7,2.7,0,0,0,2.69-2.69V151.44A2.69,2.69,0,0,0,382.69,148.75Z" style="fill: rgb(255, 255, 255); transform-origin: 354.565px 162.685px;" id="elxpsrphepxym" class="animable"></path><path d="M382.69,177.11H339a3.19,3.19,0,0,1-3.19-3.19v-5.4l-13.29-12.37h13.29v-4.71a3.19,3.19,0,0,1,3.19-3.19h43.73a3.2,3.2,0,0,1,3.19,3.19v22.48A3.2,3.2,0,0,1,382.69,177.11Zm-45.92-9.76v6.57a2.2,2.2,0,0,0,2.19,2.19h43.73a2.2,2.2,0,0,0,2.19-2.19V151.44a2.2,2.2,0,0,0-2.19-2.19H339a2.2,2.2,0,0,0-2.19,2.19v5.92l-.6-.21H325l11.22,10.44Z" style="fill: rgb(64, 123, 255); transform-origin: 354.22px 162.68px;" id="elgcxu8r2ik0k" class="animable"></path><path d="M351.78,164.06l.24-.23.13-.12a4.89,4.89,0,0,0,.45-.46l.09-.1h0a4.14,4.14,0,0,0,.46-.69,5.1,5.1,0,0,0,.4-.94l.06-.24a4.09,4.09,0,0,0-.12-2.31l-.09-.23a3.14,3.14,0,0,0-1.33-1.46,3.65,3.65,0,0,0-4.6,1.32,3.65,3.65,0,0,0-4.6-1.32,3.07,3.07,0,0,0-1.32,1.46,2.29,2.29,0,0,0-.1.23,4,4,0,0,0-.11,2.31,1.05,1.05,0,0,0,.06.24,4.46,4.46,0,0,0,.39.94,4.87,4.87,0,0,0,.46.69h0l.08.09a4.25,4.25,0,0,0,.48.47l.11.12.24.23,2.39,2.31.24.23,1.71,1.65,1.69-1.65.24-.23Z" style="fill: rgb(38, 50, 56); transform-origin: 347.471px 162.595px;" id="el34ok7zalnfa" class="animable"></path></g><g id="freepik--speech-bubble-1--inject-44" class="animable" style="transform-origin: 250.05px 84.67px;"><path d="M274.55,68.67V91.15a2.69,2.69,0,0,1-2.69,2.69H255.93L250,103l-6.57-9.13H228.14a2.7,2.7,0,0,1-2.69-2.69V68.67A2.7,2.7,0,0,1,228.14,66h43.72A2.69,2.69,0,0,1,274.55,68.67Z" style="fill: rgb(255, 255, 255); transform-origin: 250px 84.5px;" id="el6zp8dta6vr8" class="animable"></path><path d="M250,103.86l-6.85-9.52h-15A3.19,3.19,0,0,1,225,91.15V68.67a3.19,3.19,0,0,1,3.19-3.19h43.72a3.19,3.19,0,0,1,3.19,3.19V91.15a3.19,3.19,0,0,1-3.19,3.19H256.2ZM228.14,66.48A2.19,2.19,0,0,0,226,68.67V91.15a2.19,2.19,0,0,0,2.19,2.19h15.54l6.3,8.75,5.68-8.75h16.2a2.19,2.19,0,0,0,2.19-2.19V68.67a2.19,2.19,0,0,0-2.19-2.19Z" style="fill: rgb(64, 123, 255); transform-origin: 250.05px 84.67px;" id="elwmjc0ljggcg" class="animable"></path></g><g id="freepik--text-2--inject-44" class="animable" style="transform-origin: 369.39px 162.45px;"><path d="M361.81,164.22v1.07h-4.28v-.85l2.18-2.07c.51-.48.6-.77.6-1.05,0-.44-.31-.7-.91-.7a1.4,1.4,0,0,0-1.18.57l-1-.62a2.63,2.63,0,0,1,2.25-1c1.26,0,2.11.65,2.11,1.67a2.26,2.26,0,0,1-.95,1.79l-1.31,1.24Z" style="fill: rgb(38, 50, 56); transform-origin: 359.515px 162.427px;" id="elkse279n8bx" class="animable"></path><path d="M366.55,163.55c0,1-.74,1.83-2.35,1.83a3.94,3.94,0,0,1-2.16-.6l.51-1a2.7,2.7,0,0,0,1.62.51c.65,0,1.06-.27,1.06-.73s-.32-.69-1.06-.69h-.6V162l1.16-1.32h-2.41v-1.06h4v.86L365,161.92A1.62,1.62,0,0,1,366.55,163.55Z" style="fill: rgb(38, 50, 56); transform-origin: 364.295px 162.5px;" id="elbi81bbuoqp" class="animable"></path><path d="M371.36,164.22v1.07h-4.29v-.85l2.19-2.07c.5-.48.59-.77.59-1.05,0-.44-.31-.7-.91-.7a1.38,1.38,0,0,0-1.17.57l-1-.62a2.63,2.63,0,0,1,2.25-1c1.27,0,2.11.65,2.11,1.67a2.23,2.23,0,0,1-.95,1.79l-1.3,1.24Z" style="fill: rgb(38, 50, 56); transform-origin: 369.065px 162.427px;" id="eld5pwdgg9nir" class="animable"></path><path d="M376.09,163.55c0,1-.74,1.83-2.35,1.83a4,4,0,0,1-2.16-.6l.51-1a2.72,2.72,0,0,0,1.62.51c.66,0,1.06-.27,1.06-.73s-.31-.69-1.06-.69h-.6V162l1.17-1.32h-2.42v-1.06h4v.86l-1.28,1.45A1.62,1.62,0,0,1,376.09,163.55Z" style="fill: rgb(38, 50, 56); transform-origin: 373.835px 162.5px;" id="elxav76xz3x9q" class="animable"></path><path d="M376.7,162.45c0-1.87,1-2.93,2.43-2.93s2.43,1.06,2.43,2.93-1,2.93-2.43,2.93S376.7,164.32,376.7,162.45Zm3.54,0c0-1.29-.45-1.82-1.11-1.82s-1.1.53-1.1,1.82.46,1.82,1.1,1.82S380.24,163.74,380.24,162.45Z" style="fill: rgb(38, 50, 56); transform-origin: 379.13px 162.45px;" id="eljj5l9o77v4k" class="animable"></path></g><g id="freepik--text-1--inject-44" class="animable" style="transform-origin: 249.655px 78.955px;"><circle cx="237.44" cy="75.82" r="3.46" style="fill: rgb(38, 50, 56); transform-origin: 237.44px 75.82px;" id="elslv5ioh8zgs" class="animable"></circle><path d="M240.19,80h-5.35a3.08,3.08,0,0,0-3.08,3.08v2.47h11.51V83.07A3.08,3.08,0,0,0,240.19,80Z" style="fill: rgb(38, 50, 56); transform-origin: 237.515px 82.775px;" id="el27ntayqn5azi" class="animable"></path><path d="M255.29,76.05v8.06h-1.87V77.55h-1.61v-1.5Z" style="fill: rgb(38, 50, 56); transform-origin: 253.55px 80.08px;" id="elu2lzhv0cd" class="animable"></path><path d="M267.55,80.56v3.55h-1.8V80.84c0-1-.45-1.46-1.18-1.46s-1.37.52-1.37,1.62v3.11h-1.79V80.84c0-1-.43-1.46-1.18-1.46s-1.36.52-1.36,1.62v3.11h-1.8v-6.2h1.72v.72a2.51,2.51,0,0,1,1.95-.81,2.33,2.33,0,0,1,2,1,2.76,2.76,0,0,1,2.23-1C266.49,77.82,267.55,78.67,267.55,80.56Z" style="fill: rgb(38, 50, 56); transform-origin: 262.31px 80.964px;" id="el9za41svf6w5" class="animable"></path></g><g id="freepik--Icons--inject-44" class="animable" style="transform-origin: 177.004px 188.509px;"><path d="M200,122.86l-2.33-.6a2.21,2.21,0,0,0-2.61,1.46l-3.3,10.62a1.93,1.93,0,0,0,1.38,2.47l2.33.59a2.2,2.2,0,0,0,2.61-1.46l3.3-10.61A1.93,1.93,0,0,0,200,122.86Z" style="fill: rgb(38, 50, 56); transform-origin: 196.57px 129.831px;" id="elypm588ej5l" class="animable"></path><path d="M200,122.86l-2.33-.6a2.21,2.21,0,0,0-2.61,1.46l-3.3,10.62a1.93,1.93,0,0,0,1.38,2.47l2.33.59a2.2,2.2,0,0,0,2.61-1.46l3.3-10.61A1.93,1.93,0,0,0,200,122.86Z" style="fill: rgb(64, 123, 255); transform-origin: 196.57px 129.831px;" id="eldpzcfipm5tv" class="animable"></path><path d="M218.37,127.54l-6.82-1.73,2.43-3.2a2.34,2.34,0,0,0,.49-1.17l.4-2.9a2.3,2.3,0,0,0-1.73-2.56l-2.72-.69-1.34,4.32-5.8,4.42a3.47,3.47,0,0,0-1.22,1.73L199,135.68a2.39,2.39,0,0,0,1.71,3.06l9.54,2.42a3.05,3.05,0,0,0,2.48-.44l1.14-.76a3.16,3.16,0,0,0,1.06-1.18l4.46-8.78Z" style="fill: rgb(255, 255, 255); transform-origin: 209.137px 128.272px;" id="elfp23ctb0l6" class="animable"></path><path d="M211,141.76a3.7,3.7,0,0,1-.87-.11l-9.54-2.43a2.87,2.87,0,0,1-1.83-1.39,2.9,2.9,0,0,1-.23-2.29l3.09-9.93a4,4,0,0,1,1.4-2l5.67-4.32,1.44-4.62,3.17.81a2.77,2.77,0,0,1,2.1,3.1l-.39,2.91a3,3,0,0,1-.59,1.41l-2,2.59,6.33,1.61,1.18,2.9-4.57,9a3.61,3.61,0,0,1-1.22,1.38l-1.14.76A3.72,3.72,0,0,1,211,141.76Zm-.2-25.87-1.25,4-5.93,4.52a3,3,0,0,0-1.05,1.48l-3.08,9.92a1.89,1.89,0,0,0,.15,1.51,1.85,1.85,0,0,0,1.2.91l9.54,2.43a2.64,2.64,0,0,0,2.09-.37l1.14-.77a2.62,2.62,0,0,0,.88-1l4.36-8.58-.81-2-7.31-1.86,2.89-3.79a2,2,0,0,0,.4-.94l.39-2.9a1.78,1.78,0,0,0-1.36-2Z" style="fill: rgb(64, 123, 255); transform-origin: 209.162px 128.215px;" id="elvxp1xf8bsbc" class="animable"></path><path d="M183.73,246.77l-2.31.66a2.2,2.2,0,0,0-1.51,2.58l2.53,10.82a1.94,1.94,0,0,0,2.44,1.44l2.31-.67A2.2,2.2,0,0,0,188.7,259l-2.53-10.82A1.93,1.93,0,0,0,183.73,246.77Z" style="fill: rgb(38, 50, 56); transform-origin: 184.307px 254.518px;" id="ela4l2h7naj9k" class="animable"></path><path d="M183.73,246.77l-2.31.66a2.2,2.2,0,0,0-1.51,2.58l2.53,10.82a1.94,1.94,0,0,0,2.44,1.44l2.31-.67A2.2,2.2,0,0,0,188.7,259l-2.53-10.82A1.93,1.93,0,0,0,183.73,246.77Z" style="fill: rgb(64, 123, 255); transform-origin: 184.307px 254.518px;" id="elxe9jfu2rxe" class="animable"></path><path d="M202,241.48l-6.76,2,.48-4a2.45,2.45,0,0,0-.17-1.26l-1.13-2.7a2.28,2.28,0,0,0-2.78-1.33l-2.69.78,1,4.4-2.77,6.75a3.5,3.5,0,0,0-.17,2.12l2.36,10.11a2.39,2.39,0,0,0,3,1.77l9.45-2.74a3.12,3.12,0,0,0,1.92-1.64l.6-1.23a3.12,3.12,0,0,0,.31-1.56l-.6-9.83Z" style="fill: rgb(255, 255, 255); transform-origin: 195.787px 247.153px;" id="el77pb4rwtysr" class="animable"></path><path d="M191.69,260.69a2.9,2.9,0,0,1-1.45-.39,2.94,2.94,0,0,1-1.36-1.86l-2.36-10.12a4,4,0,0,1,.2-2.42l2.7-6.6-1.1-4.71,3.15-.91a2.78,2.78,0,0,1,3.38,1.61L196,238a3,3,0,0,1,.21,1.51l-.39,3.24,6.27-1.82,2.48,1.9.62,10.06a3.65,3.65,0,0,1-.36,1.81l-.6,1.23a3.59,3.59,0,0,1-2.23,1.9l-9.45,2.74A3,3,0,0,1,191.69,260.69Zm-2.18-25.4,1,4.09-2.82,6.9a3,3,0,0,0-.16,1.81l2.37,10.12a1.89,1.89,0,0,0,2.39,1.4l9.46-2.74a2.57,2.57,0,0,0,1.6-1.38l.6-1.23a2.59,2.59,0,0,0,.26-1.31l-.59-9.6L201.87,242l-7.25,2.1.58-4.74a2,2,0,0,0-.14-1l-1.13-2.71a1.8,1.8,0,0,0-2.19-1Z" style="fill: rgb(64, 123, 255); transform-origin: 195.807px 247.125px;" id="elriq9stzksg" class="animable"></path><path d="M140.74,182.31l-2.39-.27a2.19,2.19,0,0,0-2.39,1.79l-1.85,11a1.93,1.93,0,0,0,1.7,2.27l2.39.27a2.19,2.19,0,0,0,2.38-1.79l1.86-11A1.93,1.93,0,0,0,140.74,182.31Z" style="fill: rgb(38, 50, 56); transform-origin: 138.275px 189.704px;" id="el92eknifjmum" class="animable"></path><path d="M140.74,182.31l-2.39-.27a2.19,2.19,0,0,0-2.39,1.79l-1.85,11a1.93,1.93,0,0,0,1.7,2.27l2.39.27a2.19,2.19,0,0,0,2.38-1.79l1.86-11A1.93,1.93,0,0,0,140.74,182.31Z" style="fill: rgb(64, 123, 255); transform-origin: 138.275px 189.704px;" id="eltv4km1ahig" class="animable"></path><path d="M159.61,184.5l-7-.81,2-3.49a2.43,2.43,0,0,0,.32-1.23V176a2.29,2.29,0,0,0-2.06-2.3l-2.78-.32-.75,4.45L144.19,183a3.47,3.47,0,0,0-1,1.88l-1.74,10.25a2.38,2.38,0,0,0,2.1,2.79l9.78,1.14a3.08,3.08,0,0,0,2.4-.77l1-.91a3.1,3.1,0,0,0,.89-1.31l3.25-9.3Z" style="fill: rgb(255, 255, 255); transform-origin: 151.141px 186.229px;" id="elrj9vuccunxf" class="animable"></path><path d="M153.69,199.61l-.4,0-9.78-1.13a2.89,2.89,0,0,1-2.53-3.38l1.73-10.24a4,4,0,0,1,1.13-2.15l5-5.05.81-4.76,3.25.37a2.79,2.79,0,0,1,2.5,2.8V179a2.9,2.9,0,0,1-.39,1.48l-1.61,2.83,6.49.75,1.55,2.72-3.33,9.51a3.62,3.62,0,0,1-1,1.53l-1,.9A3.67,3.67,0,0,1,153.69,199.61ZM150.52,174l-.7,4.15-5.28,5.27a3,3,0,0,0-.84,1.61L142,195.24a1.88,1.88,0,0,0,1.66,2.22l9.78,1.13a2.6,2.6,0,0,0,2-.65l1-.91a2.61,2.61,0,0,0,.75-1.1l3.17-9.08L159.3,185l-7.49-.87,2.36-4.15a1.89,1.89,0,0,0,.26-1V176a1.79,1.79,0,0,0-1.61-1.8Z" style="fill: rgb(64, 123, 255); transform-origin: 151.188px 186.255px;" id="elj0dnou2qnv8" class="animable"></path></g><g id="freepik--Character--inject-44" class="animable" style="transform-origin: 250.181px 264.589px;"><path d="M302.67,140.57l-6.6.28a2.41,2.41,0,0,1-2.55-2.58l.83-18.26a1.28,1.28,0,0,1,1.2-1.2l8.14-.34a2.43,2.43,0,0,1,2.55,2.58l-.77,16.73A3,3,0,0,1,302.67,140.57Z" style="fill: rgb(64, 123, 255); transform-origin: 299.879px 129.661px;" id="elj4moy80y8dh" class="animable"></path><g id="elhbgu8bngrpf"><path d="M302.67,140.57l-6.6.28a2.41,2.41,0,0,1-2.55-2.58l.83-18.26a1.28,1.28,0,0,1,1.2-1.2l8.14-.34a2.43,2.43,0,0,1,2.55,2.58l-.77,16.73A3,3,0,0,1,302.67,140.57Z" style="opacity: 0.2; transform-origin: 299.879px 129.661px;" class="animable"></path></g><path d="M303,140.9l-6.61.27a2.41,2.41,0,0,1-2.55-2.57l.84-18.27a1.26,1.26,0,0,1,1.19-1.19l8.14-.34a2.41,2.41,0,0,1,2.55,2.57l-.77,16.73A3,3,0,0,1,303,140.9Z" style="fill: rgb(64, 123, 255); transform-origin: 300.2px 129.985px;" id="elwprz0f1cvpg" class="animable"></path><g id="elh9e7aipxsji"><path d="M303,140.9l-6.48.27a2.48,2.48,0,0,1-2.62-2.63l.84-18.15a1.35,1.35,0,0,1,1.26-1.26l8-.33a2.48,2.48,0,0,1,2.62,2.63l-.76,16.62A3.05,3.05,0,0,1,303,140.9Z" style="fill: rgb(255, 255, 255); opacity: 0.5; transform-origin: 300.26px 129.985px;" class="animable"></path></g><g id="elwfvntamdu4r"><path d="M298.69,124.43l-2.9.12a1.14,1.14,0,0,1-1.21-1.21l.14-3a1.3,1.3,0,0,1,1.22-1.22l3-.13a1.14,1.14,0,0,1,1.2,1.22l-.13,2.88A1.4,1.4,0,0,1,298.69,124.43Z" style="fill: rgb(255, 255, 255); opacity: 0.3; transform-origin: 297.36px 121.77px;" class="animable"></path></g><path d="M298.43,124.2l-2.63.11a1.15,1.15,0,0,1-1.21-1.22l.12-2.64a1.41,1.41,0,0,1,1.32-1.32l2.64-.11a1.14,1.14,0,0,1,1.2,1.22l-.12,2.64A1.4,1.4,0,0,1,298.43,124.2Z" style="fill: rgb(38, 50, 56); transform-origin: 297.23px 121.665px;" id="elo1ivlrgbxt" class="animable"></path><g id="el3mu0b5r8c9b"><path d="M298.43,124.2l-2.63.11a1.15,1.15,0,0,1-1.21-1.22l.12-2.64a1.41,1.41,0,0,1,1.32-1.32l2.64-.11a1.14,1.14,0,0,1,1.2,1.22l-.12,2.64A1.4,1.4,0,0,1,298.43,124.2Z" style="fill: rgb(255, 255, 255); opacity: 0.1; transform-origin: 297.23px 121.665px;" class="animable"></path></g><path d="M301.57,130.2a1.49,1.49,0,0,1-1.4,1.4,1.22,1.22,0,0,1-1.29-1.29,1.51,1.51,0,0,1,1.41-1.41A1.21,1.21,0,0,1,301.57,130.2Z" style="fill: rgb(255, 255, 255); transform-origin: 300.226px 130.25px;" id="el0mmzfn4ew0b" class="animable"></path><path d="M238.13,123.84c-.44,2.54-3.1,4.22-5.15,5.79.35,1.39,3.52,1.35,4.85.79.16,2.35-2.13,6-4.3,6.94,1.77,2,5.22,1.7,7-.26.47,3.36-1.67,7.1-4.53,8.92.19.11.38.2.57.29,4.48,2,9.7-.18,11.91-4.58a19.65,19.65,0,0,0,1.46-3.9,21.64,21.64,0,0,0-.76-13.05C247.76,121.1,241.41,121.64,238.13,123.84Z" style="fill: rgb(38, 50, 56); transform-origin: 241.793px 134.58px;" id="eljqnywwzb5yh" class="animable"></path><path d="M266,123.88c.55,2.54,3.86,4.22,6.42,5.79-.44,1.39-4.39,1.35-6,.79-.2,2.35,2.65,6,5.35,6.94-2.2,2-6.5,1.7-8.72-.26-.58,3.36,2.09,7.09,5.65,8.92-.23.1-.47.2-.72.29-5.57,2-12.08-.18-14.82-4.58a16.89,16.89,0,0,1-1.83-3.9,17.65,17.65,0,0,1,.95-13.05C254,121.14,261.93,121.68,266,123.88Z" style="fill: rgb(38, 50, 56); transform-origin: 261.462px 134.62px;" id="elx9geflobi9" class="animable"></path><polygon points="280.03 412.41 288.41 410.24 283.75 390.74 275.36 392.9 280.03 412.41" style="fill: rgb(255, 136, 123); transform-origin: 281.885px 401.575px;" id="el94jsh4aumh" class="animable"></polygon><path d="M288.23,408.41l-9.17,2.37a.77.77,0,0,0-.52.85l.78,9.13a1.55,1.55,0,0,0,1.46,1.48l.24,0c3.29-.92,8-2.39,12.15-3.46,4.85-1.26,5.33-1.05,11-2.52,3.44-.89,3.25-5.21,1.71-5.2-7,0-8.64.24-15.45-2.4A3.71,3.71,0,0,0,288.23,408.41Z" style="fill: rgb(38, 50, 56); transform-origin: 292.734px 415.292px;" id="elp01ln6aa4bl" class="animable"></path><g id="elzp1r02tro28"><polygon points="283.75 390.75 286.15 401.8 277.77 403.97 275.36 392.92 283.75 390.75" style="opacity: 0.2; transform-origin: 280.755px 397.36px;" class="animable"></polygon></g><path d="M289.13,408.72a.19.19,0,0,1-.18-.06.2.2,0,0,1,0-.28c.32-.3,3.18-2.84,4.33-2.53a.68.68,0,0,1,.47.43,1.1,1.1,0,0,1-.1,1,3.15,3.15,0,0,1-1.87,1A14.18,14.18,0,0,1,289.13,408.72Zm.53-.43c1.91-.17,3.25-.6,3.62-1.18a.71.71,0,0,0,.06-.69.28.28,0,0,0-.17-.18,1,1,0,0,0-.39,0A10.73,10.73,0,0,0,289.66,408.29Z" style="fill: rgb(64, 123, 255); transform-origin: 291.36px 407.274px;" id="elb5jfjlw3bct" class="animable"></path><path d="M289,408.75a.26.26,0,0,1-.12-.17c0-.09-.4-2.37.38-3.49a1.44,1.44,0,0,1,1-.61c.55-.09.83.14.88.35.41.9-1,3.17-1.92,3.88l-.08,0A.27.27,0,0,1,289,408.75Zm.6-3.42a4.68,4.68,0,0,0-.34,2.81c.84-.87,1.78-2.61,1.54-3.14,0,0-.1-.21-.45-.12l-.12,0A1.06,1.06,0,0,0,289.6,405.33Z" style="fill: rgb(64, 123, 255); transform-origin: 289.995px 406.605px;" id="ely3jxlmqog7o" class="animable"></path><polygon points="198.66 406.95 206.93 409.54 213.26 390.5 204.99 387.92 198.66 406.95" style="fill: rgb(255, 136, 123); transform-origin: 205.96px 398.73px;" id="elj72hli3pvn" class="animable"></polygon><path d="M207.62,407l-9-2.82a.77.77,0,0,0-.89.44l-4.11,8a1.52,1.52,0,0,0,.47,2l.22.1c3.28.95,8,2.19,12.15,3.47,4.78,1.5,5.08,1.92,10.68,3.67,3.4,1.06,5.5-2.65,4.18-3.46-6-3.67-7.47-4.33-11.88-10.11A3.73,3.73,0,0,0,207.62,407Z" style="fill: rgb(38, 50, 56); transform-origin: 207.572px 413.103px;" id="eldur1ghc3y1b" class="animable"></path><g id="eld7j08idv95o"><polygon points="213.26 390.51 209.59 401.57 201.32 398.98 204.99 387.93 213.26 390.51" style="opacity: 0.2; transform-origin: 207.29px 394.75px;" class="animable"></polygon></g><path d="M208.34,408.62a.18.18,0,0,1-.11-.15.2.2,0,0,1,.16-.22c.43-.08,4.2-.73,5,.14a.65.65,0,0,1,.17.61,1.06,1.06,0,0,1-.63.83,3.21,3.21,0,0,1-2.14-.11A14.22,14.22,0,0,1,208.34,408.62Zm.68-.09c1.72.88,3.08,1.21,3.7.92a.69.69,0,0,0,.41-.56.24.24,0,0,0,0-.24.93.93,0,0,0-.34-.18A11.06,11.06,0,0,0,209,408.53Z" style="fill: rgb(64, 123, 255); transform-origin: 210.903px 408.952px;" id="el0d1hpm28p5zk" class="animable"></path><path d="M208.23,408.58a.24.24,0,0,1,0-.2c0-.09.91-2.23,2.17-2.77a1.42,1.42,0,0,1,1.16,0c.52.22.63.56.57.77-.13,1-2.55,2.14-3.68,2.28l-.08,0Zm2.3-2.58a4.67,4.67,0,0,0-1.77,2.2c1.17-.29,2.89-1.28,3-1.85,0-.06,0-.23-.32-.34l-.12,0A1,1,0,0,0,210.53,406Z" style="fill: rgb(64, 123, 255); transform-origin: 210.176px 407.073px;" id="elqembbrfszjg" class="animable"></path><path d="M302.16,145.91l.25,8.77-7.58.14.58-9.75S302,140.81,302.16,145.91Z" style="fill: rgb(255, 136, 123); transform-origin: 298.62px 149.112px;" id="elm2u69klzhid" class="animable"></path><path d="M298.24,147.41l3.92-1.5,1.94-7.3a3,3,0,0,0-.38-2.35l-2.29-3.6a3,3,0,0,0-3.8-1.06l-1.7.85a2.94,2.94,0,0,0-1.53,3.47l1,3.48S294.1,147.64,298.24,147.41Z" style="fill: rgb(255, 136, 123); transform-origin: 299.236px 139.361px;" id="el5c62p8im3y7" class="animable"></path><path d="M260.48,168.49c6.5,4.73,22.35,22.51,35.83,22.32,10.93.19,7.94-41.7,7.94-41.7L294,148.05s-2.24,26.56-3.8,25.58c-.75-.47-21.38-19-21.38-19-5.18-4.08-13.56-1.23-17.49,4.07Z" style="fill: rgb(38, 50, 56); transform-origin: 277.977px 169.431px;" id="elwg7bo3zy6b" class="animable"></path><g id="elttqhj0gq2cj"><g style="opacity: 0.1; transform-origin: 277.977px 169.431px;" class="animable"><path d="M260.48,168.49c6.5,4.73,22.35,22.51,35.83,22.32,10.93.19,7.94-41.7,7.94-41.7L294,148.05s-2.24,26.56-3.8,25.58c-.75-.47-21.38-19-21.38-19-5.18-4.08-13.56-1.23-17.49,4.07Z" id="elh2lg14e8xye" class="animable" style="transform-origin: 277.977px 169.431px;"></path></g></g><path d="M274.13,231.67,282.35,333,288,394.7a3.12,3.12,0,0,1-2.58,3.49l-10.25,1a3.07,3.07,0,0,1-3.18-2.66c-2.61-13.72-9.72-35.17-10.13-61.24,0,0-14.2-67.13-16.73-87.81L245,228.92Z" style="fill: rgb(38, 50, 56); transform-origin: 266.514px 314.057px;" id="elkov9n6xcuvg" class="animable"></path><g id="el64t94auozhe"><path d="M274.13,231.67,282.35,333,288,394.7a3.12,3.12,0,0,1-2.58,3.49l-10.25,1a3.07,3.07,0,0,1-3.18-2.66c-2.61-13.72-9.72-35.17-10.13-61.24,0,0-14.2-67.13-16.73-87.81L245,228.92Z" style="fill: rgb(255, 255, 255); opacity: 0.7; transform-origin: 266.514px 314.057px;" class="animable"></path></g><g id="elfot4kczfa8k"><path d="M252.34,253.57s2.87,16.94,2.78,44.94c0,0-4.55-20.13-7.05-31.14Z" style="opacity: 0.2; transform-origin: 251.596px 276.04px;" class="animable"></path></g><path d="M258.66,232.64l-21.8,103.64-21,60.39a2.73,2.73,0,0,1-3.57,1.82l-10.75-3.95a3.31,3.31,0,0,1-1.79-3.84c3-13.24,5.67-35.23,15.73-57.93,0,0,6-65.74,14.09-100.9Z" style="fill: rgb(38, 50, 56); transform-origin: 229.15px 315.264px;" id="el0js2d9opa0hs" class="animable"></path><g id="elerzl86aqvh"><path d="M258.66,232.64l-21.8,103.64-21,60.39a2.73,2.73,0,0,1-3.57,1.82l-10.75-3.95a3.31,3.31,0,0,1-1.79-3.84c3-13.24,5.67-35.23,15.73-57.93,0,0,6-65.74,14.09-100.9Z" style="fill: rgb(255, 255, 255); opacity: 0.7; transform-origin: 229.15px 315.264px;" class="animable"></path></g><path d="M245.42,150.22c1.76-5.46,1.39-13.31.8-18.22l11.85,11.72a14.21,14.21,0,0,0-.75,6.51,2.36,2.36,0,0,0,2.05,2l5.05,1.58.59,3.9-3.05.79-3.87,5.07L248,158.5l-10.58-4.92a20,20,0,0,1,4.93-.92A4.31,4.31,0,0,0,245.42,150.22Z" style="fill: rgb(255, 136, 123); transform-origin: 251.215px 147.785px;" id="elqiwfz1xces" class="animable"></path><path d="M277.15,233.65h-53l12.47-80.58s.36-.12,1.08-.31l3.83-.68,0,0c.77.52,8.39,7.37,15.79,7.65,6.27.24,3.7-7.67,3.7-7.67l2.69.84c.35.06.7.1,1.06.15L268,155.5s6.91,15,8.57,52.3Z" style="fill: rgb(64, 123, 255); transform-origin: 250.65px 192.855px;" id="els8x8361z2t" class="animable"></path><path d="M257.87,161.86c-.1.14-.49.06-1.09-.2Z" style="fill: rgb(64, 123, 255); transform-origin: 257.325px 161.794px;" id="el6ora6zuryka" class="animable"></path><g id="elgs27ophqz6f"><path d="M251,137.68l6.83,6.7a15.06,15.06,0,0,0-.65,3.8c-2.79-.64-6.2-3.26-7.08-6.42C249.57,139.82,250.3,137.85,251,137.68Z" style="opacity: 0.2; isolation: isolate; transform-origin: 253.874px 142.93px;" class="animable"></path></g><path d="M244.43,123.14c.51,9,.36,14.29,4.89,18.92,6.8,7,17.93,2.88,20.1-6.07,2-8.12.79-21.44-8-25.05a12.29,12.29,0,0,0-17,12.2Z" style="fill: rgb(255, 136, 123); transform-origin: 257.321px 127.791px;" id="el9qdekm2p3i" class="animable"></path><path d="M247.43,128a3,3,0,0,0-1.33-.34,1.63,1.63,0,0,0-1.51.62,2.47,2.47,0,0,0-.07,1.91c.7,2.85,1.47,5.69,2.32,8.5a27.63,27.63,0,0,1-7.84-17c2.67-.24,5.82-.39,8.49-.63" style="fill: rgb(38, 50, 56); transform-origin: 243.245px 129.875px;" id="elfobqyq58xad" class="animable"></path><path d="M258.73,125.51c.07.74.5,1.29,1,1.25s.81-.67.74-1.41-.51-1.28-1-1.23S258.66,124.79,258.73,125.51Z" style="fill: rgb(38, 50, 56); transform-origin: 259.6px 125.439px;" id="el0iq1suxn8hn9" class="animable"></path><path d="M267,124.9c.07.73.51,1.28,1,1.24s.8-.67.73-1.4-.5-1.29-1-1.24S266.9,124.17,267,124.9Z" style="fill: rgb(38, 50, 56); transform-origin: 267.861px 124.819px;" id="el4cf3xkanq55" class="animable"></path><path d="M255.51,122.12a.61.61,0,0,1-.2-.09.45.45,0,0,1,0-.61,4.31,4.31,0,0,1,3.79-1,.43.43,0,0,1,.3.53.42.42,0,0,1-.53.3h0a3.43,3.43,0,0,0-3,.84A.43.43,0,0,1,255.51,122.12Z" style="fill: rgb(38, 50, 56); transform-origin: 257.303px 121.234px;" id="elojny7w139k" class="animable"></path><path d="M270.09,121.52a.4.4,0,0,1-.41,0,3.42,3.42,0,0,0-3.08-.26.42.42,0,0,1-.57-.19.42.42,0,0,1,.19-.58,4.28,4.28,0,0,1,3.92.28.41.41,0,0,1,.16.57h0A.41.41,0,0,1,270.09,121.52Z" style="fill: rgb(38, 50, 56); transform-origin: 268.168px 120.86px;" id="elvtdiai74yd" class="animable"></path><path d="M240,131.51a8.54,8.54,0,0,0,5.32,3.8c2.94.65,4.25-2,3.3-4.69-.85-2.41-3.4-5.67-6.28-5.12S238.55,129.13,240,131.51Z" style="fill: rgb(255, 136, 123); transform-origin: 244.123px 130.424px;" id="elei12wep0nal" class="animable"></path><path d="M263.82,125.34a24.92,24.92,0,0,0,4.32,5.52,4.27,4.27,0,0,1-3.33,1.29Z" style="fill: rgb(186, 77, 60); transform-origin: 265.98px 128.749px;" id="elu09cb41re8h" class="animable"></path><path d="M261,152.08s7.5,3.17,10.26,23.44a324.19,324.19,0,0,1,3,57.1c-.75,17.77-.11,29.28,5.39,28.53,0,0,.5-9.56,0-41.34S280.8,152.66,261,152.08Z" style="fill: rgb(38, 50, 56); transform-origin: 270.436px 206.632px;" id="el8j8e7b4wnj5" class="animable"></path><path d="M238.5,152.08s9,5,10,36.7,2.51,73.15-8.17,74.15-22.35-5-22.35-5,5.4-33.92,6.5-45.46c1.27-13.34-6-50.05-1.34-53.72S238.5,152.08,238.5,152.08Z" style="fill: rgb(38, 50, 56); transform-origin: 233.59px 207.561px;" id="el1qwk4mr19br" class="animable"></path><g id="el87z31jf8j35"><g style="opacity: 0.2; transform-origin: 235.65px 239.085px;" class="animable"><g id="elyb4gkj2ml3o"><path d="M231.41,236.5h8.47a3.27,3.27,0,0,1,3.27,3.27v1.9a0,0,0,0,1,0,0h-15a0,0,0,0,1,0,0v-1.9a3.27,3.27,0,0,1,3.27-3.27Z" style="fill: rgb(255, 255, 255); transform-origin: 235.65px 239.085px; transform: rotate(-171.82deg);" class="animable"></path></g></g></g><path d="M248.24,203.27l11.41-4.14,2.73-5.46a3.05,3.05,0,0,1,1.47-1.41l3.92-1.78a3.08,3.08,0,0,1,2.73.11l1.73,1a3,3,0,0,1,1.33,1.46l.8,1.87a3,3,0,0,1-.59,3.29l-5.1,5.39a3.06,3.06,0,0,1-1.47.86l-5.12,1.28-13,6.34Z" style="fill: rgb(255, 136, 123); transform-origin: 261.426px 201.147px;" id="elr2pvs4qymnp" class="animable"></path><path d="M257.87,206.09a2.92,2.92,0,0,1-1.15,3.57c-3.18,2-9.61,5.32-16.89,4.37-10.35-1.34-20.32-30-21.71-38.06-1.54-9,3.07-14.17,3.07-14.17,5-7.83,9.11-.66,13.4,8.73s5.9,26.66,7.42,29c1,1.48,6.5-.27,10.33-1.72a2.93,2.93,0,0,1,4,2.34A25.1,25.1,0,0,0,257.87,206.09Z" style="fill: rgb(38, 50, 56); transform-origin: 237.945px 186.328px;" id="elyzya2es9hmd" class="animable"></path><g id="elcho262fvg1"><g style="opacity: 0.1; transform-origin: 237.945px 186.328px;" class="animable"><path d="M257.87,206.09a2.92,2.92,0,0,1-1.15,3.57c-3.18,2-9.61,5.32-16.89,4.37-10.35-1.34-20.32-30-21.71-38.06-1.54-9,3.07-14.17,3.07-14.17,5-7.83,9.11-.66,13.4,8.73s5.9,26.66,7.42,29c1,1.48,6.5-.27,10.33-1.72a2.93,2.93,0,0,1,4,2.34A25.1,25.1,0,0,0,257.87,206.09Z" style="fill: rgb(255, 255, 255); transform-origin: 237.945px 186.328px;" id="eltqiv3skwa3h" class="animable"></path></g></g><path d="M262.63,136.08a6.09,6.09,0,0,1-3.89-2.82.21.21,0,0,1,.08-.29.23.23,0,0,1,.29.09,5.83,5.83,0,0,0,4.39,2.75.21.21,0,0,1,.2.22.21.21,0,0,1-.22.2h0A7.85,7.85,0,0,1,262.63,136.08Z" style="fill: rgb(38, 50, 56); transform-origin: 261.206px 134.59px;" id="elbo9mopao1p" class="animable"></path><path d="M255.61,121c3.51-.51,6.13-3.92,6.58-7.44,3.14.77,5.18,3.59,6.81,6.4a1.53,1.53,0,0,0,2.35.38,2.42,2.42,0,0,0,.55-2.17,6.75,6.75,0,0,0-1-2.22c-.6-1-1.21-2-1.88-3a10.36,10.36,0,0,0-8.67-4.49l-.23,0a13.75,13.75,0,0,0-8.26-1.38c-3.22.39-5.28,1.88-7.73,4-3.4,3-3.81,9-11.14,13.19l5.64.08a40.7,40.7,0,0,0,17-3.43Z" style="fill: rgb(38, 50, 56); transform-origin: 252.478px 115.646px;" id="el9cixs4fiu68" class="animable"></path><path d="M264.94,123.52s4-1.3,6.26-.08,1.38,5.19,1,5.9c-.82,1.48-2.87,1.79-4.65.46S264.94,123.52,264.94,123.52Z" style="fill: rgb(38, 50, 56); transform-origin: 268.815px 126.781px;" id="el9za8veyjdou" class="animable"></path><path d="M263.58,123.6s-4.94-.76-7.47.75-1,5.33-.38,6c1.17,1.36,3.65,1.4,5.59-.16S263.58,123.6,263.58,123.6Z" style="fill: rgb(38, 50, 56); transform-origin: 259.141px 127.387px;" id="eleuy2ty827j4" class="animable"></path><path d="M262.89,124.32a2.75,2.75,0,0,1,2.4-.19l.34-.54a3.33,3.33,0,0,0-3,.14Z" style="fill: rgb(38, 50, 56); transform-origin: 264.13px 123.809px;" id="elzlzooqwjl9g" class="animable"></path><polygon points="256.49 124.88 256.45 124.24 254.35 124.37 244.16 123.74 244.13 124.38 254.35 125 256.49 124.88" style="fill: rgb(38, 50, 56); transform-origin: 250.31px 124.37px;" id="elw6suc98pau" class="animable"></polygon><g id="el1sfd6vvhs39"><rect x="271.04" y="123.46" width="1.76" height="0.64" style="fill: rgb(38, 50, 56); transform-origin: 271.92px 123.78px; transform: rotate(-3.44deg);" class="animable"></rect></g><path d="M270.63,123.77a4.77,4.77,0,0,1,1.31,1.92,4.46,4.46,0,0,1,0,2.68l-2.68-4.73A1.36,1.36,0,0,1,270.63,123.77Z" style="fill: rgb(255, 255, 255); transform-origin: 270.703px 125.941px;" id="eljkxx40r55if" class="animable"></path><path d="M260.68,124.07a8.17,8.17,0,0,1,1.6,2.38,2.43,2.43,0,0,1-.32,2.22l-2.69-4.73A1.35,1.35,0,0,1,260.68,124.07Z" style="fill: rgb(255, 255, 255); transform-origin: 260.843px 126.235px;" id="elbw4uzcpeggo" class="animable"></path><path d="M262.85,124.44l-.21,1.13a5.77,5.77,0,0,0-1.15-1.67S263.06,123.63,262.85,124.44Z" style="fill: rgb(255, 255, 255); transform-origin: 262.18px 124.713px;" id="elnlcs7xtyntl" class="animable"></path></g><defs>     <filter id="active" height="200%">         <feMorphology in="SourceAlpha" result="DILATED" operator="dilate" radius="2"></feMorphology>                <feFlood flood-color="#32DFEC" flood-opacity="1" result="PINK"></feFlood>        <feComposite in="PINK" in2="DILATED" operator="in" result="OUTLINE"></feComposite>        <feMerge>            <feMergeNode in="OUTLINE"></feMergeNode>            <feMergeNode in="SourceGraphic"></feMergeNode>        </feMerge>    </filter>    <filter id="hover" height="200%">        <feMorphology in="SourceAlpha" result="DILATED" operator="dilate" radius="2"></feMorphology>                <feFlood flood-color="#ff0000" flood-opacity="0.5" result="PINK"></feFlood>        <feComposite in="PINK" in2="DILATED" operator="in" result="OUTLINE"></feComposite>        <feMerge>            <feMergeNode in="OUTLINE"></feMergeNode>            <feMergeNode in="SourceGraphic"></feMergeNode>        </feMerge>            <feColorMatrix type="matrix" values="0   0   0   0   0                0   1   0   0   0                0   0   0   0   0                0   0   0   1   0 "></feColorMatrix>    </filter></defs></svg>